<svg width="28" height="28" viewBox="0 0 28 28" fill="none" xmlns="http://www.w3.org/2000/svg">
<path d="M14.0007 26.5433C7.08232 26.5433 1.45898 20.92 1.45898 14.0016C1.45898 7.08329 7.08232 1.45996 14.0007 1.45996C20.919 1.45996 26.5423 7.08329 26.5423 14.0016C26.5423 20.92 20.919 26.5433 14.0007 26.5433ZM14.0007 3.20996C8.05065 3.20996 3.20898 8.05163 3.20898 14.0016C3.20898 19.9516 8.05065 24.7933 14.0007 24.7933C19.9507 24.7933 24.7923 19.9516 24.7923 14.0016C24.7923 8.05163 19.9507 3.20996 14.0007 3.20996Z" fill="#0064FA"/>
<path d="M18.6673 14.875H9.33398C8.85565 14.875 8.45898 14.4783 8.45898 14C8.45898 13.5217 8.85565 13.125 9.33398 13.125H18.6673C19.1457 13.125 19.5423 13.5217 19.5423 14C19.5423 14.4783 19.1457 14.875 18.6673 14.875Z" fill="#0064FA"/>
<path d="M14 19.5433C13.5217 19.5433 13.125 19.1466 13.125 18.6683V9.33496C13.125 8.85663 13.5217 8.45996 14 8.45996C14.4783 8.45996 14.875 8.85663 14.875 9.33496V18.6683C14.875 19.1466 14.4783 19.5433 14 19.5433Z" fill="#0064FA"/>
</svg>
