<svg width="52" height="52" viewBox="0 0 52 52" fill="none" xmlns="http://www.w3.org/2000/svg">
<rect width="52" height="52" rx="26" fill="#F7E6E8"/>
<path d="M34.125 26.5418V28.5002C34.125 32.4285 34.125 34.3927 32.9046 35.6131C31.6842 36.8335 29.72 36.8335 25.7917 36.8335H24.5833C20.655 36.8335 18.6908 36.8335 17.4704 35.6131C16.25 34.3927 16.25 32.4285 16.25 28.5002V25.6668C16.25 21.7385 16.25 19.7743 17.4704 18.5539C18.6908 17.3335 20.655 17.3335 24.5833 17.3335H24.9167H26" stroke="#D64657" stroke-width="1.25" stroke-linecap="round"/>
<path d="M33.043 15.7083C33.4739 15.2773 34.0585 15.0352 34.668 15.0352C35.2775 15.0352 35.862 15.2773 36.293 15.7083C36.7239 16.1392 36.9661 16.7238 36.9661 17.3333C36.9661 17.9427 36.7239 18.5273 36.293 18.9583L26.0013 29.2499L21.668 30.3333L22.7513 25.9999L33.043 15.7083Z" stroke="#D64657" stroke-width="1.25" stroke-linecap="round" stroke-linejoin="round"/>
</svg>
