<svg width="121" height="120" viewBox="0 0 121 120" fill="none" xmlns="http://www.w3.org/2000/svg">
<circle cx="60" cy="60" r="49" fill="#F7F7F7" stroke="#0064FA" stroke-width="2"/>
<rect x="80" y="10" width="26" height="26" rx="13" fill="#0064FA"/>
<path fill-rule="evenodd" clip-rule="evenodd" d="M96.6273 19.1576C96.654 19.2042 96.7007 19.2375 96.7607 19.2375C98.3607 19.2375 99.6673 20.5427 99.6673 22.141V26.0966C99.6673 27.6948 98.3607 29 96.7607 29H89.2407C87.634 29 86.334 27.6948 86.334 26.0966V22.141C86.334 20.5427 87.634 19.2375 89.2407 19.2375C89.294 19.2375 89.3473 19.2109 89.3673 19.1576L89.4073 19.0777C89.4303 19.0293 89.4539 18.9796 89.4778 18.9292C89.6484 18.57 89.8371 18.1725 89.954 17.939C90.2607 17.3396 90.7807 17.0067 91.4273 17H94.5673C95.214 17.0067 95.7407 17.3396 96.0473 17.939C96.1523 18.1487 96.3123 18.4866 96.4665 18.8123C96.4983 18.8795 96.5299 18.9462 96.5607 19.0111L96.6273 19.1576ZM96.1407 21.7148C96.1407 22.0477 96.4073 22.3141 96.7407 22.3141C97.074 22.3141 97.3473 22.0477 97.3473 21.7148C97.3473 21.3818 97.074 21.1088 96.7407 21.1088C96.4073 21.1088 96.1407 21.3818 96.1407 21.7148ZM91.8473 22.7469C92.1607 22.434 92.5673 22.2675 93.0007 22.2675C93.434 22.2675 93.8407 22.434 94.1473 22.7403C94.454 23.0466 94.6207 23.4528 94.6207 23.8857C94.614 24.778 93.894 25.5039 93.0007 25.5039C92.5673 25.5039 92.1607 25.3374 91.854 25.0311C91.5473 24.7248 91.3807 24.3185 91.3807 23.8857V23.879C91.374 23.4595 91.5407 23.0533 91.8473 22.7469ZM94.8473 25.737C94.374 26.2098 93.7207 26.5028 93.0007 26.5028C92.3007 26.5028 91.6473 26.2297 91.1473 25.737C90.654 25.2375 90.3807 24.5849 90.3807 23.8857C90.374 23.1931 90.6473 22.5405 91.1407 22.0411C91.6407 21.5416 92.3007 21.2686 93.0007 21.2686C93.7007 21.2686 94.3607 21.5416 94.854 22.0344C95.3473 22.5339 95.6207 23.1931 95.6207 23.8857C95.614 24.6115 95.3207 25.2642 94.8473 25.737Z" fill="white"/>
<path d="M60 53V67" stroke="#0064FA" stroke-width="2" stroke-linecap="round" stroke-linejoin="round"/>
<path d="M67 60L53 60" stroke="#0064FA" stroke-width="2" stroke-linecap="round" stroke-linejoin="round"/>
</svg>
