<svg width="48" height="47" viewBox="0 0 48 47" fill="none" xmlns="http://www.w3.org/2000/svg">
<path fill-rule="evenodd" clip-rule="evenodd" d="M24.166 0.0625C24.9119 0.0625 25.6273 0.358816 26.1548 0.886262C26.6822 1.41371 26.9785 2.12908 26.9785 2.875V20.6875H44.791C45.5369 20.6875 46.2523 20.9838 46.7798 21.5113C47.3072 22.0387 47.6035 22.7541 47.6035 23.5C47.6035 24.2459 47.3072 24.9613 46.7798 25.4887C46.2523 26.0162 45.5369 26.3125 44.791 26.3125H26.9785V44.125C26.9785 44.8709 26.6822 45.5863 26.1548 46.1137C25.6273 46.6412 24.9119 46.9375 24.166 46.9375C23.4201 46.9375 22.7047 46.6412 22.1773 46.1137C21.6498 45.5863 21.3535 44.8709 21.3535 44.125V26.3125H3.54102C2.79509 26.3125 2.07972 26.0162 1.55228 25.4887C1.02483 24.9613 0.728516 24.2459 0.728516 23.5C0.728516 22.7541 1.02483 22.0387 1.55228 21.5113C2.07972 20.9838 2.79509 20.6875 3.54102 20.6875H21.3535V2.875C21.3535 2.12908 21.6498 1.41371 22.1773 0.886262C22.7047 0.358816 23.4201 0.0625 24.166 0.0625Z" fill="#0064FA"/>
</svg>
