<svg width="24" height="24" viewBox="0 0 24 24" fill="none" xmlns="http://www.w3.org/2000/svg">
<g clip-path="url(#clip0_9396_99085)">
<path d="M8.68335 3.37204L8.2797 3.66711L8.29505 3.6881L8.31249 3.70739C8.75007 4.19131 8.99747 4.83895 8.99657 5.51666C8.99566 6.19437 8.74655 6.84125 8.30772 7.32382L8.29243 7.34064L8.27873 7.35877L7.17589 8.81821L7.00731 9.04129L7.10912 9.30171C7.74199 10.9204 8.67309 12.3932 9.85012 13.6347C11.0272 14.8763 12.4271 15.8623 13.9702 16.5347L14.2538 16.6582L14.4909 16.4597L15.8849 15.2927L15.9026 15.278L15.9188 15.2616C16.3758 14.8014 16.9782 14.5487 17.5999 14.5477C18.2215 14.5468 18.8246 14.7977 19.2828 15.2566L19.3014 15.2753L19.322 15.2919L19.6366 14.9033L19.322 15.2919L19.3221 15.292L19.3224 15.2922L19.3236 15.2933L19.3285 15.2972L19.3477 15.3127L19.4205 15.3717L19.6805 15.5823C19.8958 15.7568 20.1832 15.9897 20.4715 16.2235C20.7598 16.4573 21.0489 16.6919 21.2676 16.8699C21.377 16.959 21.4685 17.0335 21.5334 17.0867L21.6085 17.1484L21.6132 17.1523C22.0632 17.6372 22.3195 18.2935 22.3195 18.9822C22.3195 19.6799 22.0564 20.3443 21.5954 20.831L21.5836 20.8434L21.5727 20.8566L20.7198 21.8903C18.9501 23.6598 16.5318 23.9003 13.8907 23.0432C11.2333 22.1808 8.42952 20.2227 6.06932 17.7447C3.71023 15.2678 1.83461 12.3137 0.996095 9.50242C0.160223 6.69995 0.372441 4.12224 2.03566 2.24394L3.11011 1.25956L3.11986 1.25062L3.12913 1.24117C3.59064 0.771092 4.20375 0.515751 4.83475 0.521582C5.45781 0.52734 6.05943 0.787387 6.51143 1.25487L6.51595 1.26089L6.57469 1.34004C6.62518 1.40835 6.69605 1.50464 6.78063 1.61979C6.94971 1.84997 7.17261 2.15413 7.39476 2.45753C7.61687 2.76088 7.83811 3.06328 8.00383 3.28985L8.20392 3.56345L8.25991 3.64003L8.27465 3.6602L8.27843 3.66537L8.27938 3.66667L8.27962 3.667L8.27968 3.66708L8.68335 3.37204ZM6.50071 1.24064C6.49861 1.23801 6.49737 1.23639 6.49729 1.23626C6.49721 1.23612 6.49825 1.23743 6.50071 1.24064ZM21.0355 17.9275L21.0037 17.889L20.9648 17.8574L20.65 18.2459L20.9648 17.8574L20.9647 17.8574L20.9644 17.8571L20.9631 17.8561L20.9583 17.8522L20.9392 17.8367L20.8669 17.7781L20.6086 17.5688C20.3947 17.3953 20.1093 17.1638 19.8229 16.9314C19.5365 16.6989 19.2493 16.4657 19.032 16.2887C18.9233 16.2002 18.8324 16.1261 18.7679 16.0732L18.6933 16.0118L18.6852 16.0051C18.3994 15.7172 18.0136 15.5514 17.6065 15.5514C17.1981 15.5514 16.8112 15.7182 16.5252 16.0077C16.5233 16.0093 16.521 16.0113 16.5185 16.0135L16.4554 16.0671C16.401 16.1132 16.3243 16.1779 16.2326 16.2552C16.0493 16.4096 15.8072 16.6132 15.5657 16.8161L14.9033 17.3725L14.6856 17.5553L14.6247 17.6064L14.6086 17.6199L14.6045 17.6234L14.6035 17.6242L14.6034 17.6243C14.5415 17.6762 14.4702 17.7082 14.3973 17.7202C14.3244 17.7321 14.2496 17.724 14.1792 17.6957L14.1752 17.6942C12.3257 16.9702 10.6437 15.8349 9.24436 14.3638C7.84491 12.8927 6.76102 11.1202 6.06776 9.16585L6.0679 9.1658L6.06366 9.1547C6.03119 9.06963 6.02038 8.97588 6.03314 8.88366C6.04591 8.79147 6.08138 8.70672 6.13356 8.6376L6.1343 8.63663L6.13757 8.6323L6.15035 8.61541L6.19891 8.55127L6.37244 8.32209L6.90072 7.62484C7.09343 7.37066 7.28679 7.11583 7.43351 6.92294C7.50692 6.82644 7.56838 6.74579 7.61218 6.68858L7.66295 6.62252C7.66509 6.61976 7.66694 6.61738 7.66852 6.61535C7.94299 6.31557 8.09276 5.92014 8.09276 5.51312C8.09276 5.10745 7.94399 4.71329 7.67125 4.41388L7.66468 4.40517L7.6065 4.32691C7.55635 4.25915 7.48594 4.16356 7.40185 4.04915C7.23379 3.82047 7.01222 3.51819 6.79139 3.21662C6.57059 2.91509 6.35067 2.61449 6.18593 2.38925L5.98704 2.11726L5.93138 2.04113L5.91673 2.02108L5.91297 2.01594L5.91202 2.01465L5.91179 2.01432L5.91173 2.01424L5.50804 2.30926L5.91171 2.01421L5.88472 1.97729L5.85148 1.94588C5.55904 1.66948 5.17209 1.51714 4.76919 1.52782C4.3724 1.53833 3.9993 1.70588 3.72244 1.98873L2.64011 2.98033L2.61053 3.00744L2.58564 3.03892C1.08835 4.93289 1.15805 7.43771 2.05973 9.91328C2.96456 12.3975 4.73938 14.9602 6.84636 17.1115C8.95248 19.262 11.4286 21.0403 13.7689 21.9207C16.0968 22.7964 18.4322 22.8251 20.0511 21.2148L20.0685 21.1975L20.0841 21.1785L20.9357 20.1465C21.2204 19.8605 21.3874 19.4758 21.409 19.0719C21.4312 18.6578 21.2995 18.2471 21.0355 17.9275ZM18.6703 15.9925C18.6706 15.9928 18.6721 15.9941 18.6744 15.9961C18.671 15.9932 18.6698 15.9921 18.6703 15.9925Z" fill="#B1B2B4" stroke="#B1B2B4"/>
</g>
<defs>
<clipPath id="clip0_9396_99085">
<rect width="24" height="24" fill="white"/>
</clipPath>
</defs>
</svg>
