<svg width="272" height="29" viewBox="0 0 272 29" fill="none" xmlns="http://www.w3.org/2000/svg">
<path d="M45 14.8809C45 22.2886 38.9769 28.3809 31.5 28.3809C24.0923 28.3809 18 22.2886 18 14.8809C18 7.47317 24.0231 1.38086 31.4308 1.38086C38.9769 1.38086 45 7.47317 45 14.8809Z" fill="#F9B50B"/>
<path d="M26.9308 14.9501C26.9308 13.9809 26.7923 13.0116 26.6538 12.1116H18.3462C18.4154 11.627 18.5538 11.2116 18.6923 10.6578H26.1C25.9615 10.1732 25.7538 9.68855 25.5462 9.20394H19.2462C19.4538 8.71932 19.7308 8.30394 20.0077 7.75009H24.7846C24.5077 7.26547 24.1615 6.78086 23.7462 6.29624H21.1154C21.5308 5.81163 21.9462 5.39624 22.5 4.91163C20.1462 2.69624 16.9615 1.38086 13.4308 1.38086C6.09231 1.58855 0 7.47317 0 14.8809C0 22.2886 6.02308 28.3809 13.5 28.3809C17.0308 28.3809 20.1462 26.9962 22.5692 24.8501C23.0538 24.4347 23.4692 23.9501 23.9538 23.3962H21.1846C20.8385 22.9809 20.4923 22.4962 20.2154 22.0116H24.9231C25.2 21.5962 25.4769 21.1116 25.6846 20.5578H19.3846C19.1769 20.1424 18.9692 19.6578 18.8308 19.1039H26.2385C26.6538 17.8578 26.9308 16.4732 26.9308 14.9501Z" fill="#C8191C"/>
<path d="M18.2781 18.343L18.4858 17.0968C18.4166 17.0968 18.2781 17.166 18.1396 17.166C17.655 17.166 17.5858 16.8891 17.655 16.7507L18.0704 14.2584H18.8319L19.0396 12.8737H18.3473L18.4858 12.043H17.0319C17.0319 12.043 16.2012 16.7507 16.2012 17.3045C16.2012 18.1353 16.6858 18.5507 17.3781 18.5507C17.7935 18.5507 18.1396 18.4122 18.2781 18.343Z" fill="white"/>
<path d="M18.7617 16.0577C18.7617 18.0654 20.1463 18.55 21.254 18.55C22.2925 18.55 22.7771 18.3423 22.7771 18.3423L23.054 16.9577C23.054 16.9577 22.2925 17.3038 21.5309 17.3038C19.9386 17.3038 20.2156 16.1269 20.2156 16.1269H23.1233C23.1233 16.1269 23.3309 15.2269 23.3309 14.8115C23.3309 13.9115 22.8463 12.7346 21.254 12.7346C19.8694 12.6654 18.7617 14.2577 18.7617 16.0577ZM21.254 13.9808C22.0156 13.9808 21.8771 14.8808 21.8771 14.95H20.2848C20.354 14.8808 20.4925 13.9808 21.254 13.9808Z" fill="white"/>
<path d="M30.3231 18.3419L30.6 16.7496C30.6 16.7496 29.9077 17.0958 29.3539 17.0958C28.3846 17.0958 27.9 16.3342 27.9 15.4342C27.9 13.7035 28.7308 12.8035 29.7693 12.8035C30.4616 12.8035 31.0846 13.2188 31.0846 13.2188L31.2923 11.6958C31.2923 11.6958 30.4616 11.3496 29.6308 11.3496C27.9693 11.3496 26.377 12.8035 26.377 15.5035C26.377 17.3035 27.2077 18.4804 28.9385 18.4804C29.5616 18.5496 30.3231 18.3419 30.3231 18.3419Z" fill="white"/>
<path d="M10.4539 12.666C9.48468 12.666 8.72314 12.9429 8.72314 12.9429L8.51544 14.1891C8.51544 14.1891 9.13852 13.9122 10.1078 13.9122C10.5924 13.9122 11.0078 13.9814 11.0078 14.3968C11.0078 14.6737 10.9385 14.7429 10.9385 14.7429H10.3154C9.06929 14.7429 7.75391 15.2276 7.75391 16.8891C7.75391 18.2045 8.58468 18.4814 9.13852 18.4814C10.1078 18.4814 10.5924 17.8583 10.6616 17.8583L10.5924 18.4122H11.7693L12.3231 14.466C12.3231 12.7352 10.9385 12.666 10.4539 12.666ZM10.7308 15.8506C10.7308 16.0583 10.5924 17.2352 9.7616 17.2352C9.34621 17.2352 9.20775 16.8891 9.20775 16.6814C9.20775 16.3352 9.41544 15.8506 10.5231 15.8506C10.6616 15.8506 10.7308 15.8506 10.7308 15.8506Z" fill="white"/>
<path d="M13.7073 18.4803C14.0535 18.4803 15.8535 18.5495 15.8535 16.6111C15.8535 14.8111 14.1227 15.1572 14.1227 14.4649C14.1227 14.1188 14.3996 13.9803 14.8843 13.9803C15.0919 13.9803 15.8535 14.0495 15.8535 14.0495L16.0612 12.7342C16.0612 12.7342 15.5766 12.5957 14.6766 12.5957C13.6381 12.5957 12.5304 13.0111 12.5304 14.4649C12.5304 16.1265 14.3304 15.988 14.3304 16.6111C14.3304 17.0265 13.8458 17.0957 13.4996 17.0957C12.8766 17.0957 12.1843 16.888 12.1843 16.888L11.9766 18.2034C12.115 18.3419 12.5304 18.4803 13.7073 18.4803Z" fill="white"/>
<path d="M42.2311 11.5566L41.9542 13.4951C41.9542 13.4951 41.4003 12.8028 40.5696 12.8028C39.2542 12.8028 38.1465 14.3951 38.1465 16.2643C38.1465 17.4413 38.7003 18.6182 39.9465 18.6182C40.7773 18.6182 41.3311 18.0643 41.3311 18.0643L41.2619 18.5489H42.7157L43.7542 11.6951L42.2311 11.5566ZM41.5388 15.2951C41.5388 16.0566 41.1926 17.0951 40.3619 17.0951C39.8773 17.0951 39.6003 16.6797 39.6003 15.9182C39.6003 14.7413 40.0849 14.0489 40.7773 14.0489C41.2619 14.1182 41.5388 14.4643 41.5388 15.2951Z" fill="white"/>
<path d="M2.63071 18.4105L3.46148 13.2874L3.59994 18.4105H4.56917L6.4384 13.2874L5.67686 18.4105H7.19994L8.37686 11.5566H6.02302L4.56917 15.7797L4.49994 11.5566H2.42302L1.24609 18.4105H2.63071Z" fill="white"/>
<path d="M24.7837 18.4124C25.1991 16.0585 25.2683 14.1201 26.3068 14.4662C26.4453 13.5662 26.6529 13.1508 26.7914 12.8047H26.5145C25.8914 12.8047 25.3376 13.6355 25.3376 13.6355L25.476 12.8739H24.0914L23.1914 18.4124H24.7837Z" fill="white"/>
<path d="M33.6453 12.666C32.6761 12.666 31.9145 12.9429 31.9145 12.9429L31.7068 14.1891C31.7068 14.1891 32.3299 13.9122 33.2992 13.9122C33.7838 13.9122 34.1992 13.9814 34.1992 14.3968C34.1992 14.6737 34.1299 14.7429 34.1299 14.7429H33.5069C32.2607 14.7429 30.9453 15.2276 30.9453 16.8891C30.9453 18.2045 31.7761 18.4814 32.3299 18.4814C33.2992 18.4814 33.7838 17.8583 33.853 17.8583L33.7838 18.4122H35.0992L35.653 14.466C35.653 12.7352 34.1299 12.666 33.6453 12.666ZM33.9915 15.8506C33.9915 16.0583 33.853 17.2352 33.0222 17.2352C32.6069 17.2352 32.4684 16.8891 32.4684 16.6814C32.4684 16.3352 32.6761 15.8506 33.7838 15.8506C33.9222 15.8506 33.9222 15.8506 33.9915 15.8506Z" fill="white"/>
<path d="M36.7622 18.4124C37.1776 16.0585 37.2468 14.1201 38.2853 14.4662C38.4238 13.5662 38.6315 13.1508 38.7699 12.8047H38.493C37.8699 12.8047 37.3161 13.6355 37.3161 13.6355L37.4545 12.8739H36.0699L35.1699 18.4124H36.7622Z" fill="white"/>
<path d="M86.5547 25.2843C89.3783 22.6836 91.1617 18.9684 91.1617 14.8816C91.1617 10.7205 89.3783 7.00522 86.5547 4.47884C84.0284 2.24969 80.7589 0.837891 77.118 0.837891C69.3159 0.837891 63 7.15383 63 14.8816C63 22.6836 69.3159 28.9995 77.118 28.9995C80.7589 28.9252 84.0284 27.5134 86.5547 25.2843Z" fill="#3362AB"/>
<path d="M86.5547 25.284C89.3783 22.6833 91.1616 18.968 91.1616 14.8812C91.1616 10.7201 89.3783 7.00489 86.5547 4.47852" fill="#3362AB"/>
<path d="M86.5547 25.284C89.3783 22.6833 91.1616 18.968 91.1616 14.8812C91.1616 10.7201 89.3783 7.00489 86.5547 4.47852" stroke="#3362AB" stroke-width="0.3097"/>
<path d="M95.9926 0.763672C92.3517 0.763672 89.0079 2.17547 86.5559 4.40462C86.0357 4.85045 85.5899 5.37059 85.1441 5.89072H87.9677C88.3392 6.33655 88.7107 6.85669 89.0079 7.37683H84.0295C83.7323 7.82266 83.4351 8.34279 83.2121 8.86293H89.8253C90.0482 9.38307 90.2711 9.8289 90.4198 10.349H82.6177C82.4691 10.8692 82.3205 11.315 82.1719 11.8351H90.7913C91.0142 12.8011 91.0885 13.7671 91.0885 14.8073C91.0885 16.3678 90.8656 17.8539 90.3454 19.2657H82.5434C82.692 19.7858 82.9149 20.3059 83.1378 20.7518H89.751C89.5281 21.2719 89.2309 21.792 88.9336 22.2379H83.9552C84.2524 22.758 84.6239 23.2781 84.9955 23.724H87.8191C87.3732 24.2441 86.9274 24.7642 86.4073 25.2101C88.9336 27.4392 92.2031 28.851 95.844 28.851C103.646 28.851 109.888 22.5351 109.888 14.733C110.111 7.07961 103.795 0.763672 95.9926 0.763672Z" fill="#C9191B"/>
<path d="M75.335 18.2993H73.5517L74.5919 12.8007L72.2142 18.2993H70.6538L70.3565 12.875L69.3162 18.2993H67.7559L69.0933 11.166H71.8426L71.9912 15.6243L73.9232 11.166H76.7468L75.335 18.2993Z" fill="white"/>
<path d="M94.9523 18.2992C94.5065 18.4478 94.0607 18.5221 93.6891 18.5221C92.7975 18.5221 92.2773 18.0763 92.2773 17.259C92.2773 17.1103 92.2773 16.8874 92.3516 16.7388L92.4259 16.1444L92.5003 15.6985L93.3176 11.2402H95.0266L94.8037 12.5777H95.6954L95.4725 13.9895H94.5808L94.135 16.4416C94.135 16.5159 94.135 16.6645 94.135 16.6645C94.135 16.9617 94.3579 17.1103 94.7294 17.1103C94.9523 17.1103 95.1009 17.1103 95.1752 17.036L94.9523 18.2992Z" fill="white"/>
<path d="M100.005 12.5782C99.8566 12.5039 99.8566 12.5039 99.7823 12.5039C99.708 12.5039 99.6337 12.5039 99.6337 12.5039C99.5594 12.5039 99.485 12.5039 99.4107 12.5039C98.8163 12.5039 98.4448 12.7268 97.8503 13.4699L97.9989 12.5782H96.5871L95.5469 18.374H97.3302C97.9246 14.8074 98.2218 14.2129 99.0392 14.2129C99.1135 14.2129 99.1878 14.2129 99.2621 14.2129L99.485 14.2872L100.005 12.5782Z" fill="white"/>
<path d="M87.9656 14.3616C87.9656 15.1047 88.4115 15.6248 89.3031 15.9963C90.0462 16.2936 90.1205 16.3679 90.1205 16.6651C90.1205 17.0366 89.8232 17.1852 89.0802 17.1852C88.5601 17.1852 88.0399 17.1109 87.5198 16.9623L87.2969 18.2998H87.3712L87.6684 18.3741C87.7427 18.3741 87.9656 18.4484 88.1142 18.4484C88.5601 18.4484 88.8573 18.5227 89.0802 18.5227C90.9378 18.5227 91.8295 17.9283 91.8295 16.5908C91.8295 15.7734 91.458 15.3276 90.5663 14.9561C89.8232 14.6588 89.7489 14.5845 89.7489 14.2873C89.7489 13.9901 90.0462 13.8415 90.6406 13.8415C91.0121 13.8415 91.458 13.8415 91.9038 13.9158L92.1267 12.5783C91.6809 12.504 91.0121 12.4297 90.5663 12.4297C88.6344 12.4297 87.9656 13.3214 87.9656 14.3616Z" fill="white"/>
<path d="M79.7932 15.7734C79.5703 15.7734 79.496 15.7734 79.4217 15.7734C78.4557 15.7734 77.9356 16.0706 77.9356 16.6651C77.9356 17.0366 78.1585 17.2595 78.53 17.2595C79.1988 17.1852 79.7189 16.5908 79.7932 15.7734ZM81.0564 18.2998H79.5703L79.6446 17.7054C79.1988 18.1512 78.6043 18.3741 77.787 18.3741C76.821 18.3741 76.2266 17.7053 76.2266 16.8137C76.2266 15.4019 77.3411 14.5845 79.2731 14.5845C79.496 14.5845 79.7189 14.5845 80.0161 14.6588C80.0904 14.4359 80.0904 14.3616 80.0904 14.2873C80.0904 13.9158 79.7932 13.7672 78.9758 13.7672C78.4557 13.7672 77.9356 13.8415 77.564 13.9158L77.3411 13.9901L77.1925 14.0644L77.4154 12.7269C78.3071 12.504 78.8272 12.4297 79.496 12.4297C80.9821 12.4297 81.7994 13.0241 81.7994 14.1387C81.7994 14.4359 81.7994 14.6588 81.6508 15.2533L81.2793 17.3338L81.205 17.7054L81.1307 18.0026V18.2255L81.0564 18.2998Z" fill="white"/>
<path d="M85.8854 14.7332C85.8854 14.5846 85.8854 14.5103 85.8854 14.436C85.8854 13.9902 85.5881 13.693 85.068 13.693C84.4736 13.693 84.102 14.0645 83.9534 14.7332H85.8854ZM86.777 18.2256C86.1826 18.3742 85.5881 18.4485 84.9937 18.4485C83.0618 18.4485 82.0215 17.5568 82.0215 15.8478C82.0215 13.8416 83.2847 12.3555 85.068 12.3555C86.4798 12.3555 87.4458 13.1728 87.4458 14.436C87.4458 14.8818 87.3715 15.2534 87.2228 15.8478H83.7305C83.7305 15.9221 83.7305 15.9964 83.7305 15.9964C83.7305 16.6652 84.2506 17.0367 85.2909 17.0367C85.8853 17.0367 86.4798 16.8881 87.1485 16.6652L86.777 18.2256Z" fill="white"/>
<path d="M103.646 14.9561C103.646 14.3616 103.423 13.7672 102.68 13.7672C101.788 13.7672 101.268 14.8075 101.268 15.7734C101.268 16.5908 101.639 17.1109 102.308 17.1109C102.68 17.1109 103.497 16.5908 103.646 15.6991C103.646 15.4762 103.646 15.179 103.646 14.9561ZM105.503 15.6991C105.206 17.631 103.869 18.5227 102.085 18.5227C100.079 18.5227 99.3359 17.3338 99.3359 15.8477C99.3359 13.7672 100.673 12.4297 102.754 12.4297C104.612 12.4297 105.503 13.5443 105.503 15.0304C105.578 15.3276 105.578 15.3276 105.503 15.6991Z" fill="white"/>
<path d="M183.686 5.96289H179.926C178.789 5.96289 177.914 6.31268 177.39 7.44952L170.219 23.8024H175.291C175.291 23.8024 176.165 21.6162 176.34 21.0915C176.865 21.0915 181.849 21.0915 182.549 21.0915C182.724 21.7036 183.161 23.715 183.161 23.715H187.708L183.686 5.96289ZM177.739 17.4187C178.177 16.3693 179.663 12.4341 179.663 12.4341C179.663 12.5215 180.1 11.3847 180.275 10.7726L180.625 12.3466C180.625 12.3466 181.587 16.6316 181.762 17.5061H177.739V17.4187Z" fill="#3362AB"/>
<path d="M170.568 17.942C170.568 21.6149 167.245 24.0634 162.086 24.0634C159.9 24.0634 157.801 23.6262 156.664 23.1015L157.364 19.0789L157.976 19.3412C159.55 20.0408 160.599 20.3031 162.523 20.3031C163.922 20.3031 165.409 19.7784 165.409 18.5542C165.409 17.7671 164.797 17.2424 162.873 16.3679C161.036 15.4935 158.588 14.0943 158.588 11.5583C158.588 8.06033 161.998 5.69922 166.808 5.69922C168.645 5.69922 170.219 6.04901 171.181 6.48626L170.481 10.334L170.131 9.9842C169.257 9.63441 168.12 9.28461 166.458 9.28461C164.622 9.37206 163.747 10.1591 163.747 10.8587C163.747 11.6457 164.797 12.2579 166.458 13.0449C169.257 14.3566 170.568 15.8433 170.568 17.942Z" fill="#3362AB"/>
<path d="M127.893 6.1369L127.98 5.78711H135.501C136.55 5.78711 137.337 6.1369 137.599 7.27374L139.261 15.1441C137.599 10.9466 133.752 7.53608 127.893 6.1369Z" fill="#F9B50B"/>
<path d="M149.843 5.9605L142.235 23.7126H137.076L132.703 8.8463C135.851 10.8576 138.475 14.0058 139.437 16.192L139.961 18.0284L144.684 5.87305H149.843V5.9605Z" fill="#3362AB"/>
<path d="M151.854 5.87305H156.663L153.603 23.7126H148.793L151.854 5.87305Z" fill="#3362AB"/>
<path d="M264.438 5.39844H251.836C252.57 9.55836 256.608 13.4736 261.012 13.4736H271.045C271.167 13.1065 271.167 12.4948 271.167 12.1277C271.167 8.4572 268.109 5.39844 264.438 5.39844Z" fill="url(#paint0_linear_9964_55922)"/>
<path d="M252.936 14.207V24.3621H259.053V18.9787H264.437C267.373 18.9787 269.942 16.8987 270.799 14.207H252.936Z" fill="#4FAD50"/>
<path d="M231.402 5.39844V24.2404H236.786C236.786 24.2404 238.132 24.2404 238.866 22.8946C242.536 15.6759 243.637 13.4736 243.637 13.4736H244.372V24.2404H250.489V5.39844H245.106C245.106 5.39844 243.76 5.5208 243.026 6.7443C239.967 12.9842 238.254 16.1653 238.254 16.1653H237.52V5.39844H231.402Z" fill="#4FAD50"/>
<path d="M205.709 24.3635V5.52148H211.827C211.827 5.52148 213.539 5.52148 214.518 8.2132C216.965 15.3095 217.21 16.2883 217.21 16.2883C217.21 16.2883 217.699 14.5754 219.902 8.2132C220.88 5.52148 222.593 5.52148 222.593 5.52148H228.711V24.3635H222.593V14.2084H221.859L218.433 24.3635H215.742L212.316 14.2084H211.582V24.3635H205.709Z" fill="#4FAD50"/>
<defs>
<linearGradient id="paint0_linear_9964_55922" x1="251.814" y1="9.49388" x2="271.124" y2="9.49388" gradientUnits="userSpaceOnUse">
<stop stop-color="#27B1E6"/>
<stop offset="1" stop-color="#148ACA"/>
</linearGradient>
</defs>
</svg>
