<svg width="17" height="17" viewBox="0 0 17 17" fill="none" xmlns="http://www.w3.org/2000/svg">
<path d="M14 7.31818C14 11.4545 8.5 15 8.5 15C8.5 15 3 11.4545 3 7.31818C3 5.90771 3.57946 4.55501 4.61091 3.55766C5.64236 2.56031 7.04131 2 8.5 2C9.95869 2 11.3576 2.56031 12.3891 3.55766C13.4205 4.55501 14 5.90771 14 7.31818Z" stroke="#B1B2B4" stroke-width="2" stroke-linecap="round" stroke-linejoin="round"/>
<path d="M8.5 9.5C9.60457 9.5 10.5 8.60457 10.5 7.5C10.5 6.39543 9.60457 5.5 8.5 5.5C7.39543 5.5 6.5 6.39543 6.5 7.5C6.5 8.60457 7.39543 9.5 8.5 9.5Z" stroke="#B1B2B4" stroke-width="2" stroke-linecap="round" stroke-linejoin="round"/>
</svg>
