<svg width="41" height="41" viewBox="0 0 41 41" fill="none" xmlns="http://www.w3.org/2000/svg">
<path fill-rule="evenodd" clip-rule="evenodd" d="M31.5139 22.4938C31.6082 21.7816 31.6391 21.0508 31.6009 20.3076C31.2638 13.7464 25.6716 8.70087 19.1105 9.038C12.5493 9.37514 7.50377 14.9673 7.8409 21.5285C8.02454 25.1023 9.76732 28.2265 12.3766 30.2761C15.6717 29.7011 19.1427 28.7052 22.6213 27.2689C25.9195 25.9071 28.9124 24.2783 31.5139 22.4938ZM31.047 24.5654C28.6847 26.0657 26.0582 27.4331 23.2226 28.6039C20.1628 29.8672 17.0964 30.804 14.1314 31.4208C15.9725 32.4029 18.0956 32.913 20.3313 32.7981C25.407 32.5373 29.5756 29.1317 31.047 24.5654Z" fill="#0064FA"/>
<path fill-rule="evenodd" clip-rule="evenodd" d="M9.28104 21.7328C11.8806 20.1892 15.1138 18.6422 18.7201 17.2854C23.7093 15.4084 28.4275 14.2659 32.011 13.9247C33.8081 13.7536 35.2768 13.7885 36.3366 14.009C37.4344 14.2375 37.8796 14.6146 38.013 14.9379C38.1465 15.2611 38.0904 15.8268 37.451 16.7089C36.8337 17.5604 35.7848 18.5424 34.3486 19.5878C31.4847 21.6723 27.2185 23.9099 22.2294 25.7869C17.3723 27.6143 14.2557 28.5864 11.4433 28.9884C10.8446 29.1609 10.2381 29.3159 9.72395 29.4072C7.45101 29.8105 4.2325 29.9908 1.55948 30.0726C5.53651 30.6292 8.32462 30.8604 11.3766 30.4643C14.4509 30.0653 17.7506 29.0354 22.788 27.1403C27.8633 25.2308 32.2536 22.9373 35.2492 20.757C36.7426 19.67 37.9242 18.5862 38.6646 17.5648C39.3828 16.574 39.8116 15.4598 39.3834 14.4223C38.9551 13.3849 37.8454 12.8495 36.6123 12.5928C35.3411 12.3282 33.7027 12.3054 31.834 12.4833C28.0857 12.8401 23.2369 14.0226 18.1615 15.9321C14.486 17.3149 11.1742 18.8974 8.49219 20.4901L9.28104 21.7328Z" fill="#0064FA"/>
</svg>
