<svg width="52" height="52" viewBox="0 0 52 52" fill="none" xmlns="http://www.w3.org/2000/svg">
<rect width="52" height="52" rx="26" fill="#E5FFF1"/>
<path d="M25.9996 36.2512C20.3448 36.2512 15.748 31.6544 15.748 25.9996C15.748 20.3448 20.3448 15.748 25.9996 15.748C31.6544 15.748 36.2512 20.3448 36.2512 25.9996C36.2512 31.6544 31.6544 36.2512 25.9996 36.2512ZM25.9996 16.3901C20.701 16.3901 16.3901 20.701 16.3901 25.9996C16.3901 31.2982 20.701 35.6091 25.9996 35.6091C31.2982 35.6091 35.6091 31.2982 35.6091 25.9996C35.6091 20.701 31.2982 16.3901 25.9996 16.3901Z" stroke="#00CC5E" stroke-width="0.8475"/>
<path d="M24.3467 28.0009L24.5898 28.2439L24.8328 28.0009L29.9371 22.8966C30.0909 22.7428 30.3499 22.7428 30.5036 22.8966C30.6574 23.0503 30.6574 23.3093 30.5036 23.4631L24.873 29.0937C24.7977 29.169 24.6962 29.2115 24.5898 29.2115C24.4834 29.2115 24.3818 29.169 24.3065 29.0937L21.4962 26.2833C21.3424 26.1296 21.3424 25.8706 21.4962 25.7168C21.6499 25.5631 21.9089 25.5631 22.0627 25.7168L24.3467 28.0009Z" fill="#00CC5E" stroke="#00CC5E" stroke-width="0.6875"/>
</svg>
