<svg width="20" height="21" viewBox="0 0 20 21" fill="none" xmlns="http://www.w3.org/2000/svg">
  <path d="M10.0175 2.92578C7.25914 2.92578 5.01747 5.16745 5.01747 7.92578V10.3341C5.01747 10.8424 4.80081 11.6174 4.54247 12.0508L3.58414 13.6424C2.99247 14.6258 3.40081 15.7174 4.48414 16.0841C8.07581 17.2841 11.9508 17.2841 15.5425 16.0841C16.5508 15.7508 16.9925 14.5591 16.4425 13.6424L15.4841 12.0508C15.2341 11.6174 15.0175 10.8424 15.0175 10.3341V7.92578C15.0175 5.17578 12.7675 2.92578 10.0175 2.92578Z" stroke="#B1B2B4" stroke-width="1.25" stroke-miterlimit="10" stroke-linecap="round" />
  <path d="M11.5599 3.16719C11.3016 3.09219 11.0349 3.03385 10.7599 3.00052C9.9599 2.90052 9.19323 2.95885 8.47656 3.16719C8.71823 2.55052 9.31823 2.11719 10.0182 2.11719C10.7182 2.11719 11.3182 2.55052 11.5599 3.16719Z" stroke="#B1B2B4" stroke-width="1.25" stroke-miterlimit="10" stroke-linecap="round" stroke-linejoin="round" />
  <path d="M12.5156 16.3828C12.5156 17.7578 11.3906 18.8828 10.0156 18.8828C9.33229 18.8828 8.69896 18.5995 8.24896 18.1495C7.79896 17.6995 7.51562 17.0661 7.51562 16.3828" stroke="#B1B2B4" stroke-width="1.25" stroke-miterlimit="10" />
</svg>