<svg viewBox="0 0 131 366" fill="none" xmlns="http://www.w3.org/2000/svg">
<path d="M47.3703 14.5518C47.3703 19.1379 47.6818 21.4603 47.8375 22.0483C46.1245 21.4603 42.8852 21.6073 43.6327 26.8989C44.3802 32.1904 47.3705 33.8073 48.7722 33.9543C49.2394 36.1591 50.9213 41.3625 53.9114 44.5374C53.2885 46.7422 50.0804 52.0338 42.2314 55.5615C36.8967 57.9592 33.2195 59.1835 30.2986 60.156C27.8475 60.9721 25.929 61.6109 24.0105 62.6169C19.8057 64.8217 14.6664 69.2314 12.7976 81.1374C11.3026 90.6622 11.5518 95.3952 11.8632 96.5711C9.68297 99.0699 5.50934 109.271 6.25686 130.084C4.54381 137.287 1.11769 156.63 1.11769 176.386C0.961956 178.59 0.557047 183.97 0.183286 187.851C-0.283917 192.701 0.183286 198.875 1.11769 202.402C2.05209 205.93 8.12585 210.781 9.99466 211.663C11.8635 212.545 11.3963 210.34 9.52746 208.576C8.03241 207.165 6.72424 205.048 6.25704 204.166C7.65865 205.195 10.6487 207.077 11.3963 206.371C12.3307 205.489 11.4383 204.607 10.2493 204.166C9.06025 203.725 6.25704 202.402 5.78984 200.639C5.32264 198.875 3.92103 193.142 9.06025 190.055C11.6689 188.297 12.1968 191.308 12.5407 193.27C12.6279 193.767 12.7033 194.197 12.7979 194.465C13.2651 195.788 14.1995 195.788 15.1339 195.788C16.0683 195.788 16.5355 194.024 15.6011 190.937C15.21 189.646 15.2281 188.354 15.2444 187.191C15.267 185.576 15.2862 184.21 14.1995 183.441C12.3307 182.118 11.3963 180.354 11.8635 179.031C11.9181 178.877 12.0939 178.433 12.3633 177.753C14.3997 172.615 21.7839 153.983 22.6091 144.636C23.3566 136.17 22.9206 129.937 22.6091 127.88C24.7894 123.617 29.4303 114.121 30.5516 110.241C31.7974 118.619 34.1023 137.581 33.3548 146.4C33.077 149.677 32.3863 154.124 31.5895 159.253C29.7063 171.377 27.2306 187.314 28.2155 200.639C29.3556 216.062 31.7321 227.692 33.3336 235.53C33.701 237.328 34.0276 238.926 34.2892 240.325C35.6908 247.822 36.6252 253.995 36.158 263.696C35.9916 267.152 35.2323 270.776 34.4503 274.508C33.0372 281.252 31.5501 288.349 33.3548 295.446C36.158 306.47 43.166 328.077 45.502 333.81C47.838 339.542 48.3052 348.802 42.6988 354.094C41.718 355.02 40.8373 355.81 40.0517 356.516C36.3465 359.843 34.7564 361.27 34.7564 366H60.4525C61.2312 365.412 62.6951 363.795 62.3213 362.031C62.123 361.095 62.0088 360.001 61.8359 358.342C61.6015 356.093 61.2591 352.809 60.4525 347.48C59.0509 338.219 56.7149 320.14 58.5837 309.998C60.4525 299.855 61.8541 287.949 58.5837 276.925C57.1821 271.634 57.1821 265.46 58.5837 260.61C59.9853 255.759 62.3213 243.853 62.3213 234.152C62.3213 226.603 64.3841 205.37 65.5 194.882C66.6159 205.37 68.6787 226.603 68.6787 234.152C68.6787 243.853 71.0147 255.759 72.4163 260.61C73.8179 265.46 73.8179 271.634 72.4163 276.925C69.1459 287.949 70.5475 299.855 72.4163 309.998C74.2851 320.14 71.9491 338.219 70.5475 347.48C69.7409 352.809 69.3985 356.093 69.1641 358.342C68.9912 360.001 68.877 361.095 68.6787 362.031C68.3049 363.795 69.7689 365.412 70.5475 366H96.2436C96.2436 361.27 94.6535 359.843 90.9483 356.516C90.1627 355.81 89.282 355.02 88.3012 354.094C82.6948 348.802 83.162 339.542 85.498 333.81C87.834 328.077 94.842 306.47 97.6452 295.446C99.4499 288.349 97.9628 281.252 96.5497 274.508C95.7677 270.776 95.0085 267.152 94.842 263.696C94.3748 253.995 95.3092 247.822 96.7108 240.325C96.9724 238.926 97.299 237.328 97.6664 235.53C99.2679 227.692 101.644 216.062 102.784 200.639C103.769 187.314 101.294 171.377 99.4105 159.253C98.6137 154.124 97.923 149.677 97.6452 146.4C96.8977 137.581 99.2026 118.619 100.448 110.241C101.57 114.121 106.211 123.617 108.391 127.88C108.079 129.937 107.643 136.17 108.391 144.636C109.216 153.983 116.6 172.615 118.637 177.753C118.906 178.433 119.082 178.877 119.137 179.031C119.604 180.354 118.669 182.118 116.801 183.441C115.714 184.21 115.733 185.576 115.756 187.191C115.772 188.354 115.79 189.646 115.399 190.937C114.465 194.024 114.932 195.788 115.866 195.788C116.801 195.788 117.735 195.788 118.202 194.465C118.297 194.197 118.372 193.767 118.459 193.27C118.803 191.308 119.331 188.297 121.94 190.055C127.079 193.142 125.677 198.875 125.21 200.639C124.743 202.402 121.94 203.725 120.751 204.166C119.562 204.607 118.669 205.489 119.604 206.371C120.351 207.077 123.341 205.195 124.743 204.166C124.276 205.048 122.968 207.165 121.473 208.576C119.604 210.34 119.137 212.545 121.005 211.663C122.874 210.781 128.948 205.93 129.882 202.402C130.817 198.875 131.284 192.701 130.817 187.851C130.443 183.97 129.882 176.386 129.882 176.386C129.882 176.386 126.456 137.287 124.743 130.084C125.491 109.271 121.317 99.0699 119.137 96.5711C119.448 95.3952 119.697 90.6622 118.202 81.1374C116.334 69.2314 111.194 64.8217 106.99 62.6169C105.071 61.6109 103.152 60.9721 100.701 60.156C97.7805 59.1835 94.1033 57.9592 88.7686 55.5615C80.9196 52.0338 77.7115 46.7422 77.0886 44.5374C80.0787 41.3625 81.7606 36.1591 82.2278 33.9543C83.6295 33.8073 86.6198 32.1904 87.3673 26.8989C88.1148 21.6073 84.8755 21.4603 83.1625 22.0483C83.3182 21.4603 83.6297 19.1379 83.6297 14.5518C82.8886 1.9618 72.5965 0.0327476 65.5912 0.000418863C65.5609 0.00041854 65.5305 3.40831e-05 65.5 0.000103944C65.4695 3.40828e-05 65.4391 -3.20706e-07 65.4088 2.25258e-09C58.4035 0.0323288 48.1114 1.9618 47.3703 14.5518Z" fill="#CAE0FF"/>
</svg>
