<svg width="21" height="20" viewBox="0 0 21 20" fill="none" xmlns="http://www.w3.org/2000/svg">
<path d="M10.4999 17.7379C6.23006 17.7379 2.75892 14.2668 2.75892 9.99696C2.75892 5.72713 6.23006 2.25599 10.4999 2.25599C14.7697 2.25599 18.2409 5.72713 18.2409 9.99696C18.2409 14.2668 14.7697 17.7379 10.4999 17.7379ZM10.4999 2.46016C6.34402 2.46016 2.96309 5.84109 2.96309 9.99696C2.96309 14.1528 6.34402 17.5338 10.4999 17.5338C14.6558 17.5338 18.0367 14.1528 18.0367 9.99696C18.0367 5.84109 14.6558 2.46016 10.4999 2.46016Z" stroke="#00CC5E" stroke-width="0.941667"/>
<path d="M9.14535 11.6204L9.41543 11.8905L9.68551 11.6204L13.6119 7.69403L13.3435 7.42564L13.6119 7.69403C13.6843 7.62166 13.8091 7.62166 13.8815 7.69403C13.9538 7.7664 13.9538 7.89124 13.8815 7.9636L9.55022 12.2949C9.51408 12.331 9.46576 12.351 9.41543 12.351C9.3651 12.351 9.31678 12.331 9.28064 12.2949L7.11884 10.133C7.04647 10.0607 7.04647 9.93585 7.11884 9.86348C7.19121 9.79111 7.31604 9.79111 7.38841 9.86348L9.14535 11.6204Z" fill="#00CC5E" stroke="#00CC5E" stroke-width="0.763889"/>
</svg>
