<svg width="17" height="16" viewBox="0 0 17 16" fill="none" xmlns="http://www.w3.org/2000/svg">
<path d="M7.78749 0.325757C7.89718 -0.0564321 8.43876 -0.0564315 8.54844 0.325758L10.0371 5.5129C10.0872 5.68751 10.2497 5.8056 10.4313 5.7993L15.8246 5.61217C16.2219 5.59838 16.3893 6.11346 16.0597 6.33587L11.5865 9.35457C11.4359 9.45619 11.3738 9.64726 11.4359 9.81798L13.2805 14.8895C13.4164 15.2631 12.9782 15.5815 12.6649 15.3367L8.4116 12.0153C8.26842 11.9034 8.06752 11.9034 7.92434 12.0153L3.67108 15.3367C3.3577 15.5815 2.91955 15.2631 3.05546 14.8895L4.90005 9.81798C4.96214 9.64726 4.90006 9.45619 4.74948 9.35457L0.276229 6.33587C-0.0533612 6.11346 0.113998 5.59838 0.511376 5.61217L5.90465 5.7993C6.08621 5.8056 6.24874 5.68751 6.29885 5.5129L7.78749 0.325757Z" fill="#FFC555"/>
</svg>
